<!-- icons.svg -->
<svg xmlns="http://www.w3.org/2000/svg" style="display:none">
  <!-- GitHub Icon -->
  <symbol id="icon-github" viewBox="0 0 30 30">
    <path
      d="M15,3C8.373,3,3,8.373,3,15c0,5.623,3.872,10.328,9.092,11.63C12.036,26.468,12,26.28,12,26.047v-2.051 
      c-0.487,0-1.303,0-1.508,0c-0.821,0-1.551-0.353-1.905-1.009c-0.393-0.729-0.461-1.844-1.435-2.526 
      c-0.289-0.227-0.069-0.486,0.264-0.451c0.615,0.174,1.125,0.596,1.605,1.222c0.478,0.627,0.703,0.769,1.596,0.769 
      c0.433,0,1.081-0.025,1.691-0.121c0.328-0.833,0.895-1.6,1.588-1.962c-3.996-0.411-5.903-2.399-5.903-5.098 
      c0-1.162,0.495-2.286,1.336-3.233C9.053,10.647,8.706,8.73,9.435,8c1.798,0,2.885,1.166,3.146,1.481
      C13.477,9.174,14.461,9,15.495,9c1.036,0,2.024,0.174,2.922,0.483C18.675,9.17,19.763,8,21.565,8
      c0.732,0.731,0.381,2.656,0.102,3.594c0.836,0.945,1.328,2.066,1.328,3.226c0,2.697-1.904,4.684-5.894,5.097
      C18.199,20.49,19,22.1,19,23.313v2.734c0,0.104-0.023,0.179-0.035,0.268C23.641,24.676,27,20.236,27,15
      C27,8.373,21.627,3,15,3z"
    />
  </symbol>


  <!-- LinkedIn Icon -->
  <symbol id="icon-linkedin" viewBox="0 0 256 256">
    <g transform="scale(5.12,5.12)">
      <path
        d="M41,4h-32c-2.76,0 -5,2.24 -5,5v32c0,2.76 2.24,5 5,5h32c2.76,0 5,-2.24 5,-5v-32c0,-2.76 -2.24,-5 -5,-5zM17,20v19h-6v-19zM11,14.47c0,-1.4 1.2,-2.47 3,-2.47c1.8,0 2.93,1.07 3,2.47c0,1.4 -1.12,2.53 -3,2.53c-1.8,0 -3,-1.13 -3,-2.53zM39,39h-6c0,0 0,-9.26 0,-10c0,-2 -1,-4 -3.5,-4.04h-0.08c-2.42,0 -3.42,2.06 -3.42,4.04c0,0.91 0,10 0,10h-6v-19h6v2.56c0,0 1.93,-2.56 5.81,-2.56c3.97,0 7.19,2.73 7.19,8.26z"
      />
    </g>
  </symbol>

  <!-- Instagram Icon -->
  <symbol id="icon-instagram" viewBox="0 0 256 256">
    <g transform="scale(10.66667,10.66667)">
      <path
        d="M8,3c-2.757,0 -5,2.243 -5,5v8c0,2.757 2.243,5 5,5h8c2.757,0 5,-2.243 5,-5v-8c0,-2.757 -2.243,-5 -5,-5zM8,5h8c1.654,0 3,1.346 3,3v8c0,1.654 -1.346,3 -3,3h-8c-1.654,0 -3,-1.346 -3,-3v-8c0,-1.654 1.346,-3 3,-3zM17,6c-0.55228,0 -1,0.44772 -1,1c0,0.55228 0.44772,1 1,1c0.55228,0 1,-0.44772 1,-1c0,-0.55228 -0.44772,-1 -1,-1zM12,7c-2.757,0 -5,2.243 -5,5c0,2.757 2.243,5 5,5c2.757,0 5,-2.243 5,-5c0,-2.757 -2.243,-5 -5,-5zM12,9c1.654,0 3,1.346 3,3c0,1.654 -1.346,3 -3,3c-1.654,0 -3,-1.346 -3,-3c0,-1.654 1.346,-3 3,-3z"
      />
    </g>
  </symbol>
</svg>

